<svg width="52" height="52" viewBox="0 0 52 52" xmlns="http://www.w3.org/2000/svg">
<path d="M32.0668 13.8665C33.1952 13.8665 34.1485 14.5936 34.5073 15.5998H43.4929C43.8517 14.5936 44.805 13.8665 45.9334 13.8665C47.3669 13.8665 48.5334 15.033 48.5334 16.4664C48.5334 17.8999 47.3669 19.0664 45.9334 19.0664C44.805 19.0664 43.8517 18.3392 43.4929 17.3331H34.5064C34.1476 18.3392 33.1943 19.0664 32.0659 19.0664C30.6324 19.0664 29.4659 17.8999 29.4659 16.4664C29.4659 15.033 30.6333 13.8665 32.0668 13.8665ZM45.9334 17.3331C46.411 17.3331 46.8001 16.9448 46.8001 16.4664C46.8001 15.988 46.411 15.5998 45.9334 15.5998C45.4559 15.5998 45.0668 15.988 45.0668 16.4664C45.0668 16.9448 45.4559 17.3331 45.9334 17.3331ZM32.0668 17.3331C32.5443 17.3331 32.9334 16.9448 32.9334 16.4664C32.9334 15.988 32.5443 15.5998 32.0668 15.5998C31.5892 15.5998 31.2001 15.988 31.2001 16.4664C31.2001 16.9448 31.5892 17.3331 32.0668 17.3331Z" fill="#00B2FF"/>
<path d="M25.1333 19.2257V13.8664C25.1333 13.6358 25.2243 13.4157 25.3872 13.2536L28.8539 9.78704C29.0159 9.62411 29.2369 9.53311 29.4666 9.53311H32.2261C32.5849 8.52693 33.5382 7.7998 34.6666 7.7998C36.1001 7.7998 37.2666 8.96632 37.2666 10.3998C37.2666 11.8332 36.1001 12.9997 34.6666 12.9997C33.5382 12.9997 32.5849 12.2726 32.2261 11.2664H29.8254L26.8666 14.2252V19.2257C27.8728 19.5845 28.5999 20.5379 28.5999 21.6662C28.5999 23.0997 27.4334 24.2662 25.9999 24.2662C24.5665 24.2662 23.3999 23.0997 23.3999 21.6662C23.3999 20.5379 24.1271 19.5845 25.1333 19.2257ZM34.6666 11.2664C35.1441 11.2664 35.5333 10.8782 35.5333 10.3998C35.5333 9.92137 35.1441 9.53311 34.6666 9.53311C34.1891 9.53311 33.7999 9.92137 33.7999 10.3998C33.7999 10.8782 34.1891 11.2664 34.6666 11.2664ZM25.9999 22.5329C26.4775 22.5329 26.8666 22.1446 26.8666 21.6662C26.8666 21.1878 26.4775 20.7996 25.9999 20.7996C25.5224 20.7996 25.1333 21.1878 25.1333 21.6662C25.1333 22.1446 25.5224 22.5329 25.9999 22.5329Z" fill="#00B2FF"/>
<path d="M9.53333 22.533C9.93373 22.533 10.3081 22.6309 10.647 22.7938L12.1333 21.3075V12.9998C12.1333 12.7693 12.2243 12.5491 12.3873 12.3871L21.0609 3.7136C20.8979 3.37474 20.8 3.00035 20.8 2.59996C20.8 1.16651 21.9665 0 23.4 0C24.8335 0 26 1.16651 26 2.59996C26 4.0334 24.8335 5.19991 23.4 5.19991C22.9996 5.19991 22.6252 5.10198 22.2863 4.93905L13.8667 13.3586V21.6663C13.8667 21.8968 13.7757 22.117 13.6127 22.279L11.8725 24.0193C12.0354 24.3581 12.1333 24.7325 12.1333 25.1329C12.1333 26.5664 10.9668 27.7329 9.53333 27.7329C8.09986 27.7329 6.93333 26.5664 6.93333 25.1329C6.93333 23.6995 8.09986 22.533 9.53333 22.533ZM23.4 3.46661C23.8775 3.46661 24.2667 3.07835 24.2667 2.59996C24.2667 2.12156 23.8775 1.7333 23.4 1.7333C22.9225 1.7333 22.5333 2.12156 22.5333 2.59996C22.5333 3.07835 22.9225 3.46661 23.4 3.46661ZM9.53333 25.9996C10.0109 25.9996 10.4 25.6113 10.4 25.1329C10.4 24.6545 10.0109 24.2663 9.53333 24.2663C9.0558 24.2663 8.66667 24.6545 8.66667 25.1329C8.66667 25.6113 9.0558 25.9996 9.53333 25.9996Z" fill="#00B2FF"/>
<path d="M1.73328 12.2926V8.66652C1.73328 8.43599 1.82428 8.21586 1.98722 8.0538L8.05388 1.98723C8.21595 1.8243 8.43695 1.7333 8.66662 1.7333H13.1594C13.5182 0.727121 14.4716 0 15.6 0C17.0334 0 18.2 1.16651 18.2 2.59996C18.2 4.0334 17.0334 5.19991 15.6 5.19991C14.4716 5.19991 13.5182 4.47279 13.1594 3.46661H9.02542L3.46662 9.02532V12.2926C4.47282 12.6514 5.19995 13.6047 5.19995 14.7331C5.19995 16.1665 4.03342 17.333 2.59995 17.333C1.16648 17.333 -4.95911e-05 16.1665 -4.95911e-05 14.7331C-4.95911e-05 13.6047 0.727085 12.6514 1.73328 12.2926ZM15.6 3.46661C16.0775 3.46661 16.4666 3.07835 16.4666 2.59996C16.4666 2.12156 16.0775 1.7333 15.6 1.7333C15.1224 1.7333 14.7333 2.12156 14.7333 2.59996C14.7333 3.07835 15.1224 3.46661 15.6 3.46661ZM2.59995 15.5997C3.07748 15.5997 3.46662 15.2115 3.46662 14.7331C3.46662 14.2547 3.07748 13.8664 2.59995 13.8664C2.12242 13.8664 1.73328 14.2547 1.73328 14.7331C1.73328 15.2115 2.12242 15.5997 2.59995 15.5997Z" fill="#00B2FF"/>
<path d="M13.8658 46.9596V34.5067C12.8604 34.1479 12.1333 33.1946 12.1333 32.0662C12.1333 30.6328 13.2998 29.4663 14.7333 29.4663C15.8617 29.4663 16.815 30.1934 17.1738 31.1996H26.1594C26.5182 30.1934 27.4716 29.4663 28.6 29.4663C29.7284 29.4663 30.6817 30.1934 31.0405 31.1996H36.0412L39.2608 27.98C39.0979 27.6411 39 27.2667 39 26.8663C39 25.4329 40.1665 24.2664 41.6 24.2664C43.0334 24.2664 44.2 25.4329 44.2 26.8663C44.2 28.2998 43.0334 29.4663 41.6 29.4663C41.1996 29.4663 40.8252 29.3683 40.4863 29.2054L37.0127 32.679C36.8506 32.8419 36.6296 32.9329 36.4 32.9329H31.0405C30.6817 33.9391 29.7284 34.6662 28.6 34.6662C27.4716 34.6662 26.5182 33.9391 26.1594 32.9329H17.173C16.9112 33.6669 16.3332 34.245 15.5991 34.5067V46.9596C16.6053 47.3184 17.3324 48.2718 17.3324 49.4001C17.3324 50.8336 16.1659 52.0001 14.7324 52.0001C13.299 52.0001 12.1324 50.8336 12.1324 49.4001C12.1324 48.2718 12.8596 47.3184 13.8658 46.9596ZM41.6 27.733C42.0775 27.733 42.4666 27.3447 42.4666 26.8663C42.4666 26.3879 42.0775 25.9997 41.6 25.9997C41.1224 25.9997 40.7333 26.3879 40.7333 26.8663C40.7333 27.3447 41.1224 27.733 41.6 27.733ZM28.6 32.9329C29.0775 32.9329 29.4666 32.5446 29.4666 32.0662C29.4666 31.5878 29.0775 31.1996 28.6 31.1996C28.1224 31.1996 27.7333 31.5878 27.7333 32.0662C27.7333 32.5446 28.1224 32.9329 28.6 32.9329ZM14.7333 50.2659C15.2108 50.2659 15.6 49.8777 15.6 49.3993C15.6 48.9209 15.2108 48.5326 14.7333 48.5326C14.2558 48.5326 13.8666 48.9209 13.8666 49.3993C13.8666 49.8777 14.2558 50.2659 14.7333 50.2659ZM14.7333 32.9329C15.2108 32.9329 15.6 32.5446 15.6 32.0662C15.6 31.5878 15.2108 31.1996 14.7333 31.1996C14.2558 31.1996 13.8666 31.5878 13.8666 32.0662C13.8666 32.5446 14.2558 32.9329 14.7333 32.9329Z" fill="#00B2FF"/>
<path d="M18.2 17.4925V14.7331C18.2 14.5026 18.291 14.2824 18.4539 14.1204L28.8609 3.7136C28.6979 3.37474 28.6 3.00035 28.6 2.59996C28.6 1.16651 29.7665 0 31.2 0C32.3284 0 33.2817 0.727121 33.6405 1.7333H37.2667C37.7451 1.7333 38.1333 2.1207 38.1333 2.59996V4.84112L41.353 8.06073C41.6919 7.8978 42.0663 7.79987 42.4667 7.79987C43.9001 7.79987 45.0667 8.96638 45.0667 10.3998C45.0667 11.8333 43.9001 12.9998 42.4667 12.9998C41.0332 12.9998 39.8667 11.8333 39.8667 10.3998C39.8667 9.99943 39.9646 9.62504 40.1275 9.28618L36.6539 5.81264C36.491 5.65057 36.4 5.43044 36.4 5.19991V3.46661H33.6405C33.2817 4.47279 32.3284 5.19991 31.2 5.19991C30.7996 5.19991 30.4252 5.10198 30.0863 4.93905L19.9333 15.0919V17.4925C20.9395 17.8513 21.6667 18.8046 21.6667 19.933C21.6667 21.3664 20.5001 22.533 19.0667 22.533C17.6332 22.533 16.4667 21.3664 16.4667 19.933C16.4667 18.8046 17.1938 17.8513 18.2 17.4925ZM42.4667 11.2665C42.9442 11.2665 43.3333 10.8782 43.3333 10.3998C43.3333 9.92143 42.9442 9.53317 42.4667 9.53317C41.9891 9.53317 41.6 9.92143 41.6 10.3998C41.6 10.8782 41.9891 11.2665 42.4667 11.2665ZM31.2 3.46661C31.6775 3.46661 32.0667 3.07835 32.0667 2.59996C32.0667 2.12156 31.6775 1.7333 31.2 1.7333C30.7225 1.7333 30.3333 2.12156 30.3333 2.59996C30.3333 3.07835 30.7225 3.46661 31.2 3.46661ZM19.0667 20.7997C19.5442 20.7997 19.9333 20.4114 19.9333 19.933C19.9333 19.4546 19.5442 19.0663 19.0667 19.0663C18.5891 19.0663 18.2 19.4546 18.2 19.933C18.2 20.4114 18.5891 20.7997 19.0667 20.7997Z" fill="#00B2FF"/>
<path d="M20.8 24.2663C21.9284 24.2663 22.8817 24.9934 23.2405 25.9996H33.4412L38.3873 21.0536C38.5493 20.8906 38.7703 20.7997 39 20.7997H48.1745L50.2667 18.7076V11.6253L43.5803 4.93905C43.2415 5.10198 42.8671 5.19991 42.4667 5.19991C41.0332 5.19991 39.8667 4.0334 39.8667 2.59996C39.8667 1.16651 41.0332 0 42.4667 0C43.9001 0 45.0667 1.16651 45.0667 2.59996C45.0667 3.00035 44.9687 3.37474 44.8058 3.7136L51.7461 10.6538C51.909 10.8158 52 11.0359 52 11.2665V19.0663C52 19.2969 51.909 19.517 51.7461 19.6791L49.1461 22.279C48.984 22.442 48.763 22.533 48.5333 22.533H39.3588L34.4127 27.4789C34.2507 27.6419 34.0297 27.7329 33.8 27.7329H23.2405C22.8817 28.7391 21.9284 29.4662 20.8 29.4662C19.3665 29.4662 18.2 28.2997 18.2 26.8662C18.2 25.4328 19.3665 24.2663 20.8 24.2663ZM42.4667 1.7333C41.9891 1.7333 41.6 2.12156 41.6 2.59996C41.6 3.07835 41.9891 3.46661 42.4667 3.46661C42.9442 3.46661 43.3333 3.07835 43.3333 2.59996C43.3333 2.12156 42.9442 1.7333 42.4667 1.7333ZM20.8 27.7329C21.2775 27.7329 21.6667 27.3446 21.6667 26.8662C21.6667 26.3878 21.2775 25.9996 20.8 25.9996C20.3225 25.9996 19.9333 26.3878 19.9333 26.8662C19.9333 27.3446 20.3225 27.7329 20.8 27.7329Z" fill="#00B2FF"/>
<path d="M2.59997 20.7996C3.00037 20.7996 3.37477 20.8975 3.71363 21.0605L6.9333 17.8408V12.8403C5.9271 12.4815 5.19997 11.5281 5.19997 10.3998C5.19997 8.96632 6.3665 7.7998 7.79997 7.7998C9.23343 7.7998 10.4 8.96632 10.4 10.3998C10.4 11.5281 9.67283 12.4815 8.66663 12.8403V18.1996C8.66663 18.4302 8.57563 18.6503 8.4127 18.8124L4.9391 22.2859C5.10204 22.6248 5.19997 22.9992 5.19997 23.3995C5.19997 24.5279 4.47283 25.4812 3.46663 25.84V26.5074L10.146 33.1866C10.309 33.3487 10.4 33.5688 10.4 33.7994V34.8255C11.4062 35.1843 12.1333 36.1376 12.1333 37.266C12.1333 38.3944 11.4062 39.3477 10.4 39.7065V41.7596C11.4062 42.1184 12.1333 43.0717 12.1333 44.2001C12.1333 45.6335 10.9668 46.8 9.5333 46.8C8.09983 46.8 6.9333 45.6335 6.9333 44.2001C6.9333 43.0717 7.66043 42.1184 8.66663 41.7596V39.7065C7.66043 39.3477 6.9333 38.3944 6.9333 37.266C6.9333 36.1376 7.66043 35.1843 8.66663 34.8255V34.1582L1.98723 27.4789C1.8243 27.3168 1.7333 27.0967 1.7333 26.8662V25.84C0.7271 25.4812 -3.24249e-05 24.5279 -3.24249e-05 23.3995C-3.24249e-05 21.9661 1.1665 20.7996 2.59997 20.7996ZM7.79997 11.2664C8.2775 11.2664 8.66663 10.8782 8.66663 10.3998C8.66663 9.92137 8.2775 9.53311 7.79997 9.53311C7.32243 9.53311 6.9333 9.92137 6.9333 10.3998C6.9333 10.8782 7.32243 11.2664 7.79997 11.2664ZM9.5333 45.0659C10.0108 45.0659 10.4 44.6776 10.4 44.1992C10.4 43.7208 10.0108 43.3325 9.5333 43.3325C9.05577 43.3325 8.66663 43.7208 8.66663 44.1992C8.66663 44.6776 9.05577 45.0659 9.5333 45.0659ZM9.5333 38.1326C10.0108 38.1326 10.4 37.7444 10.4 37.266C10.4 36.7876 10.0108 36.3993 9.5333 36.3993C9.05577 36.3993 8.66663 36.7876 8.66663 37.266C8.66663 37.7444 9.05577 38.1326 9.5333 38.1326ZM2.59997 24.2662C3.0775 24.2662 3.46663 23.8779 3.46663 23.3995C3.46663 22.9212 3.0775 22.5329 2.59997 22.5329C2.12243 22.5329 1.7333 22.9212 1.7333 23.3995C1.7333 23.8779 2.12243 24.2662 2.59997 24.2662Z" fill="#00B2FF"/>
</svg>
