<svg width="18" height="18" viewBox="0 0 18 18" xmlns="http://www.w3.org/2000/svg">
<path d="M14.2333 11.1505C13.8642 10.7668 13.4191 10.5616 12.9473 10.5616C12.4794 10.5616 12.0304 10.763 11.6462 11.1467L10.4439 12.3434C10.345 12.2902 10.2461 12.2408 10.151 12.1914C10.014 12.123 9.88467 12.0584 9.77433 11.99C8.64819 11.2758 7.62476 10.3451 6.64319 9.14078C6.16762 8.54053 5.84804 8.03526 5.61596 7.5224C5.92793 7.23747 6.21708 6.94114 6.49861 6.65622C6.60514 6.54985 6.71167 6.43967 6.8182 6.3333C7.61715 5.53551 7.61715 4.50217 6.8182 3.70438L5.77955 2.66724C5.66161 2.54947 5.53987 2.4279 5.42573 2.30634C5.19746 2.0708 4.95777 1.82766 4.71047 1.59972C4.34143 1.23501 3.9001 1.04126 3.43595 1.04126C2.97179 1.04126 2.52286 1.23501 2.1424 1.59972C2.1386 1.60352 2.1386 1.60352 2.13479 1.60731L0.841243 2.91038C0.35426 3.39666 0.076528 3.9893 0.0156552 4.67693C-0.0756541 5.78624 0.251537 6.81958 0.502638 7.4958C1.11898 9.15598 2.03968 10.6946 3.41312 12.3434C5.07952 14.3302 7.08452 15.8992 9.37486 17.0048C10.2499 17.4189 11.4179 17.9089 12.7229 17.9925C12.8028 17.9963 12.8865 18.0001 12.9626 18.0001C13.8414 18.0001 14.5795 17.6848 15.1578 17.0579C15.1616 17.0504 15.1692 17.0466 15.173 17.039C15.3708 16.7996 15.5991 16.5831 15.8388 16.3513C16.0024 16.1956 16.1698 16.0322 16.3334 15.8613C16.71 15.47 16.9079 15.0141 16.9079 14.5468C16.9079 14.0757 16.7062 13.6236 16.322 13.2437L14.2333 11.1505ZM15.5953 15.1508C15.5915 15.1508 15.5915 15.1546 15.5953 15.1508C15.4469 15.3104 15.2947 15.4548 15.1311 15.6143C14.8838 15.8499 14.6327 16.0968 14.3969 16.3741C14.0126 16.7844 13.5599 16.9782 12.9664 16.9782C12.9093 16.9782 12.8484 16.9782 12.7913 16.9744C11.6614 16.9022 10.6113 16.4615 9.82379 16.0854C7.67042 15.0445 5.77955 13.5666 4.20827 11.6937C2.91092 10.1323 2.04348 8.6887 1.46899 7.13869C1.11517 6.19274 0.985816 5.45573 1.04288 4.76051C1.08093 4.31602 1.25214 3.94751 1.56791 3.63219L2.86527 2.33673C3.05169 2.16197 3.24953 2.067 3.44356 2.067C3.68324 2.067 3.87728 2.21136 3.99902 2.33293C4.00283 2.33673 4.00663 2.34053 4.01044 2.34433C4.24251 2.56087 4.46318 2.78501 4.69526 3.02435C4.8132 3.14592 4.93494 3.26749 5.05669 3.39286L6.09533 4.42999C6.49861 4.83269 6.49861 5.20499 6.09533 5.60769C5.985 5.71786 5.87847 5.82803 5.76814 5.9344C5.44856 6.26112 5.14419 6.56504 4.8132 6.86137C4.80559 6.86896 4.79798 6.87276 4.79417 6.88036C4.46698 7.20708 4.52786 7.5262 4.59634 7.74274C4.60014 7.75414 4.60395 7.76553 4.60775 7.77693C4.87787 8.43036 5.25833 9.0458 5.83662 9.77902L5.84043 9.78282C6.89048 11.0745 7.99761 12.0812 9.21887 12.8524C9.37486 12.9512 9.53465 13.031 9.68683 13.107C9.82379 13.1753 9.95315 13.2399 10.0635 13.3083C10.0787 13.3159 10.0939 13.3273 10.1091 13.3349C10.2385 13.3995 10.3602 13.4299 10.4858 13.4299C10.8016 13.4299 10.9994 13.2323 11.0641 13.1677L12.3652 11.8685C12.4946 11.7393 12.7 11.5836 12.9397 11.5836C13.1756 11.5836 13.3696 11.7317 13.4876 11.8609C13.4914 11.8647 13.4914 11.8647 13.4952 11.8685L15.5915 13.9617C15.9834 14.3492 15.9834 14.7481 15.5953 15.1508Z" fill="currentColor"/>
<path d="M9.72868 4.28181C10.7255 4.44897 11.631 4.92005 12.3538 5.64186C13.0767 6.36368 13.5446 7.26784 13.7158 8.26319C13.7577 8.51392 13.9746 8.68868 14.2219 8.68868C14.2523 8.68868 14.2789 8.68488 14.3094 8.68108C14.5909 8.63549 14.7773 8.36956 14.7317 8.08843C14.5262 6.88414 13.9555 5.78622 13.0843 4.91625C12.2131 4.04627 11.1135 3.47642 9.90749 3.27127C9.62596 3.22568 9.36344 3.41183 9.31398 3.68916C9.26452 3.96649 9.44714 4.23622 9.72868 4.28181Z" fill="currentColor"/>
<path d="M17.9921 7.94018C17.6535 5.95709 16.7176 4.15255 15.2795 2.71652C13.8414 1.28049 12.0342 0.345932 10.0482 0.00781895C9.77051 -0.0415684 9.50799 0.148383 9.45853 0.425712C9.41288 0.70684 9.5993 0.968972 9.88084 1.01836C11.6538 1.31848 13.2707 2.15807 14.5566 3.43834C15.8426 4.72241 16.6796 6.33699 16.9801 8.10734C17.022 8.35808 17.2388 8.53283 17.4861 8.53283C17.5166 8.53283 17.5432 8.52903 17.5736 8.52523C17.8514 8.48344 18.0416 8.21751 17.9921 7.94018Z" fill="currentColor"/>
</svg>
