<svg width="19" height="14" viewBox="0 0 19 14" fill="none" xmlns="http://www.w3.org/2000/svg">
<path d="M16.6805 0H2.3234C1.0418 0 0 1.0087 0 2.24959V11.7504C0 12.9913 1.0418 14 2.3234 14H16.6766C17.9582 14 19 12.9913 19 11.7504V2.2534C19.0039 1.01251 17.9621 0 16.6805 0ZM17.9425 11.7504C17.9425 12.4241 17.3764 12.9723 16.6805 12.9723H2.3234C1.62756 12.9723 1.06145 12.4241 1.06145 11.7504V2.2534C1.06145 1.57966 1.62756 1.03154 2.3234 1.03154H16.6766C17.3724 1.03154 17.9385 1.57966 17.9385 2.2534V11.7504H17.9425Z" fill="#00B2FF"/>
<path d="M11.9826 6.88195L16.6294 2.84715C16.8456 2.65683 16.8653 2.33328 16.6687 2.12012C16.4721 1.91077 16.138 1.89174 15.9178 2.08206L9.5098 7.65085L8.25965 6.56982C8.25571 6.56602 8.25178 6.56221 8.25178 6.5584C8.22426 6.53176 8.19674 6.50892 8.16529 6.48608L3.07819 2.07825C2.85803 1.88793 2.52387 1.90696 2.32731 2.12012C2.13074 2.33328 2.1504 2.65683 2.37055 2.84715L7.07239 6.91621L2.39021 11.1604C2.17792 11.3545 2.16613 11.678 2.36662 11.8874C2.47277 11.994 2.61429 12.0511 2.75582 12.0511C2.88555 12.0511 3.01529 12.0054 3.1175 11.914L7.87045 7.60898L9.15991 8.72426C9.26213 8.8118 9.38793 8.85367 9.51373 8.85367C9.63953 8.85367 9.76927 8.808 9.86755 8.72045L11.1924 7.57091L15.9178 11.9178C16.02 12.013 16.1537 12.0587 16.2834 12.0587C16.425 12.0587 16.5626 12.0054 16.6687 11.8988C16.8692 11.6933 16.8613 11.3659 16.649 11.1718L11.9826 6.88195Z" fill="#00B2FF"/>
</svg>
