<svg width="36" height="31" viewBox="0 0 36 31" xmlns="http://www.w3.org/2000/svg">
<path d="M18 9.75818C17.6119 9.75818 17.2969 10.0751 17.2969 10.4662C17.2969 10.8571 17.6119 11.1743 18 11.1743C18.3881 11.1743 18.7031 10.8571 18.7031 10.4662C18.7031 10.0751 18.3881 9.75818 18 9.75818Z" fill="currentColor"/>
<path d="M33.8906 14.0066H31.1548C29.7125 9.85946 27.6199 2.58774 23.8291 0.529671C21.9331 -0.498398 20.141 0.219618 19.4669 1.67833C19.1802 2.29844 18.6075 2.62453 18 2.62453C17.3842 2.62453 16.8162 2.29124 16.5331 1.67888C15.8829 0.269957 14.1336 -0.513887 12.3041 0.380314C8.45261 2.26386 6.29874 9.8282 4.84525 14.0066H2.10938C0.944 14.0066 0 14.9569 0 16.1308C0 17.3018 0.946198 18.2549 2.10938 18.2549H33.8906C35.056 18.2549 36 17.3043 36 16.1308C36 14.9594 35.0538 14.0066 33.8906 14.0066ZM7.31525 11.1743H15.1875C15.5759 11.1743 15.8906 10.8571 15.8906 10.4663C15.8906 10.0752 15.5759 9.75823 15.1875 9.75823H7.80688C9.92642 3.86225 11.9064 2.14908 12.9183 1.65427C14.0221 1.11493 14.9307 1.56631 15.2581 2.27603C15.7739 3.39178 16.8409 4.04065 18 4.04065C19.1618 4.04065 20.2275 3.38929 20.7419 2.27603C21.0789 1.54612 21.9922 1.14203 23.1619 1.77624C24.1784 2.32831 26.1524 4.09845 28.1928 9.75823H20.8125C20.4241 9.75823 20.1094 10.0752 20.1094 10.4663C20.1094 10.8574 20.4241 11.1743 20.8125 11.1743H28.685C29.0404 12.2066 29.4096 13.2717 29.665 14.0066H6.33527C6.58987 13.2736 6.95819 12.211 7.31525 11.1743ZM33.8906 16.8388H2.10938C1.72156 16.8388 1.40625 16.521 1.40625 16.1308C1.40625 15.7397 1.72101 15.4227 2.10938 15.4227H33.8906C34.2784 15.4227 34.5938 15.7402 34.5938 16.1308C34.5938 16.5216 34.2787 16.8388 33.8906 16.8388Z" fill="currentColor"/>
<path d="M16.5938 21.0872H5.34375C4.95538 21.0872 4.64062 21.4042 4.64062 21.7952V24.6275C4.64062 28.1412 7.47949 31 10.9688 31C13.6126 31 15.9527 29.3624 16.8835 26.8952C17.5905 26.5705 18.4095 26.5705 19.1165 26.8952C20.0473 29.3624 22.3874 30.9997 25.0312 30.9997C28.5205 30.9997 31.3594 28.1412 31.3594 24.6272V21.795C31.3594 21.4039 31.0446 21.0869 30.6562 21.0869H19.4062C19.0179 21.0869 18.7031 21.4039 18.7031 21.795V22.503H17.2969V21.795C17.2969 21.4042 16.9821 21.0872 16.5938 21.0872ZM10.9688 29.5839C8.25485 29.5839 6.04688 27.3604 6.04688 24.6275V22.5033H15.8906V24.6275C15.8906 27.3676 13.6945 29.5839 10.9688 29.5839ZM20.1094 22.5033H29.9531V24.6275C29.9531 27.3604 27.7451 29.5839 25.0312 29.5839C22.2987 29.5839 20.1094 27.361 20.1094 24.6275V22.5033ZM18.7031 23.9194V24.6275C18.7031 24.8537 18.716 25.0792 18.7394 25.3029C18.2508 25.213 17.7492 25.213 17.2606 25.3029C17.284 25.0792 17.2969 24.8537 17.2969 24.6275V23.9194H18.7031Z" fill="currentColor"/>
<path d="M10.9688 26.7515C9.80557 26.7515 8.85938 25.7984 8.85938 24.6274C8.85938 24.2363 8.54462 23.9193 8.15625 23.9193C7.76788 23.9193 7.45312 24.2363 7.45312 24.6274C7.45312 26.5792 9.03021 28.1677 10.9688 28.1677C11.3571 28.1677 11.6719 27.8504 11.6719 27.4596C11.6719 27.0685 11.3571 26.7515 10.9688 26.7515Z" fill="currentColor"/>
<path d="M25.0312 28.1677C26.9698 28.1677 28.5469 26.5792 28.5469 24.6274C28.5469 24.2363 28.2321 23.9193 27.8438 23.9193C27.4554 23.9193 27.1406 24.2363 27.1406 24.6274C27.1406 25.7984 26.1944 26.7515 25.0312 26.7515C24.6429 26.7515 24.3281 27.0685 24.3281 27.4596C24.3281 27.8504 24.6429 28.1677 25.0312 28.1677Z" fill="currentColor"/>
</svg>
